<svg width="256" height="256" viewBox="0 0 256 256" fill="none" xmlns="http://www.w3.org/2000/svg">
<path d="M96 53.3333H74.6667C69.0088 53.3333 63.5825 55.5809 59.5818 59.5817C55.581 63.5825 53.3334 69.0087 53.3334 74.6666V202.667C53.3334 208.325 55.581 213.751 59.5818 217.752C63.5825 221.752 69.0088 224 74.6667 224H181.333C186.991 224 192.418 221.752 196.418 217.752C200.419 213.751 202.667 208.325 202.667 202.667V74.6666C202.667 69.0087 200.419 63.5825 196.418 59.5817C192.418 55.5809 186.991 53.3333 181.333 53.3333H160" stroke="#516FF1" stroke-width="15" stroke-linecap="round" stroke-linejoin="round"/>
<path d="M138.667 32H117.333C105.551 32 96 41.5513 96 53.3333C96 65.1154 105.551 74.6667 117.333 74.6667H138.667C150.449 74.6667 160 65.1154 160 53.3333C160 41.5513 150.449 32 138.667 32Z" fill="#516FF1" fill-opacity="0.5" stroke="#516FF1" stroke-width="15" stroke-linecap="round" stroke-linejoin="round"/>
<path d="M138.667 170.667H160M96 128H96.1067H96ZM138.667 128H160H138.667ZM96 170.667H96.1067H96Z" stroke="#516FF1" stroke-width="15" stroke-linecap="round" stroke-linejoin="round"/>
</svg>
