<svg width="256" height="256" viewBox="0 0 256 256" fill="none" xmlns="http://www.w3.org/2000/svg">
<path d="M178.336 210.688L171.509 156.032C170.542 148.29 166.78 141.169 160.93 136.007C155.08 130.844 147.546 127.997 139.744 128H116.235C108.436 128.002 100.907 130.852 95.0622 136.014C89.2169 141.175 85.4576 148.294 84.4906 156.032L77.6533 210.688C77.2781 213.691 77.5459 216.739 78.4392 219.63C79.3324 222.522 80.8306 225.19 82.8342 227.458C84.8377 229.726 87.3009 231.541 90.06 232.784C92.8191 234.027 95.8111 234.669 98.8373 234.667H157.163C160.188 234.667 163.179 234.025 165.937 232.781C168.694 231.537 171.156 229.722 173.159 227.454C175.161 225.186 176.658 222.518 177.551 219.628C178.443 216.737 178.711 213.69 178.336 210.688V210.688Z" fill="#516FF1" fill-opacity="0.5" stroke="#516FF1" stroke-width="15" stroke-linecap="round" stroke-linejoin="round"/>
<path d="M128 85.3333C145.673 85.3333 160 71.0064 160 53.3333C160 35.6602 145.673 21.3333 128 21.3333C110.327 21.3333 96 35.6602 96 53.3333C96 71.0064 110.327 85.3333 128 85.3333Z" fill="#516FF1" fill-opacity="0.5" stroke="#516FF1" stroke-width="15"/>
<path d="M42.6666 117.333C54.4487 117.333 63.9999 107.782 63.9999 96C63.9999 84.2179 54.4487 74.6666 42.6666 74.6666C30.8845 74.6666 21.3333 84.2179 21.3333 96C21.3333 107.782 30.8845 117.333 42.6666 117.333Z" stroke="#516FF1" stroke-width="15"/>
<path d="M213.333 117.333C225.115 117.333 234.667 107.782 234.667 96C234.667 84.2179 225.115 74.6666 213.333 74.6666C201.551 74.6666 192 84.2179 192 96C192 107.782 201.551 117.333 213.333 117.333Z" stroke="#516FF1" stroke-width="15"/>
<path d="M42.6666 149.333H39.4026C34.3526 149.333 29.4661 151.124 25.6125 154.387C21.7589 157.651 19.188 162.176 18.3573 167.157L14.8053 188.491C14.2955 191.547 14.4578 194.678 15.2807 197.665C16.1036 200.653 17.5674 203.425 19.5704 205.789C21.5733 208.154 24.0673 210.053 26.8788 211.356C29.6903 212.659 32.7519 213.334 35.8506 213.333H74.6666M213.333 149.333H216.597C221.647 149.333 226.534 151.124 230.387 154.387C234.241 157.651 236.812 162.176 237.643 167.157L241.195 188.491C241.704 191.547 241.542 194.678 240.719 197.665C239.896 200.653 238.432 203.425 236.43 205.789C234.427 208.154 231.933 210.053 229.121 211.356C226.31 212.659 223.248 213.334 220.149 213.333H181.333" stroke="#516FF1" stroke-width="15" stroke-linecap="round" stroke-linejoin="round"/>
</svg>
