<svg width="256" height="256" viewBox="0 0 256 256" fill="none" xmlns="http://www.w3.org/2000/svg">
<path d="M187.056 16.608C188.519 17.2127 189.77 18.2379 190.65 19.5537C191.53 20.8696 192 22.4169 192 24V64H232C233.584 63.9971 235.134 64.4648 236.452 65.3437C237.77 66.2225 238.798 67.473 239.405 68.9366C240.011 70.4001 240.17 72.0109 239.86 73.5646C239.55 75.1184 238.786 76.5451 237.664 77.664L205.664 109.664C204.92 110.406 204.036 110.995 203.064 111.396C202.093 111.797 201.051 112.002 200 112H155.312L143.472 123.856C144.105 126.228 144.184 128.714 143.703 131.121C143.222 133.528 142.194 135.793 140.699 137.74C139.204 139.687 137.281 141.264 135.079 142.349C132.877 143.435 130.455 144 128 144C123.756 144 119.687 142.314 116.686 139.314C113.686 136.313 112 132.243 112 128L112.016 127.264C112.126 124.874 112.77 122.539 113.902 120.431C115.033 118.323 116.623 116.495 118.554 115.083C120.485 113.671 122.709 112.709 125.061 112.27C127.413 111.831 129.833 111.924 132.144 112.544L144 100.688V56C143.998 54.9487 144.203 53.9074 144.604 52.9355C145.005 51.9636 145.594 51.0803 146.336 50.336L178.336 18.336C179.456 17.2179 180.882 16.4569 182.434 16.1493C183.986 15.8417 185.595 16.0013 187.056 16.608ZM196.688 96L212.688 80H184C181.878 80 179.843 79.1571 178.343 77.6568C176.843 76.1565 176 74.1217 176 72V43.312L160 59.312V96H196.688ZM223.12 114.816C225.881 134.738 222.314 155.024 212.925 172.811C203.535 190.597 188.796 204.985 170.789 213.943C152.781 222.902 132.415 225.979 112.565 222.739C92.7153 219.499 74.3841 210.107 60.1595 195.888C45.935 181.669 36.5356 163.342 33.2881 143.493C30.0407 123.644 33.1094 103.277 42.0609 85.2659C51.0124 67.2551 65.3946 52.5107 83.1772 43.114C100.96 33.7174 121.245 30.1432 141.168 32.896L135.04 39.024C132.504 41.5604 130.568 44.633 129.376 48.016L128 48C112.119 48.0023 96.5988 52.731 83.4147 61.5839C70.2306 70.4368 59.9796 83.0132 53.9671 97.7116C47.9546 112.41 46.4528 128.565 49.6528 144.12C52.8528 159.675 60.6098 173.926 71.9361 185.057C83.2623 196.189 97.6453 203.697 113.253 206.627C128.861 209.557 144.988 207.775 159.58 201.508C174.172 195.242 186.569 184.774 195.192 171.438C203.814 158.103 208.273 142.502 208 126.624C211.37 125.432 214.431 123.502 216.96 120.976L223.12 114.816ZM128 72C116.924 72 106.097 75.2843 96.888 81.4377C87.6789 87.591 80.5012 96.337 76.2627 106.57C72.0242 116.802 70.9152 128.062 73.076 138.925C75.2368 149.788 80.5702 159.766 88.402 167.598C96.2337 175.43 106.212 180.763 117.075 182.924C127.938 185.085 139.198 183.976 149.43 179.737C159.663 175.499 168.409 168.321 174.562 159.112C180.716 149.903 184 139.076 184 128H168C168 135.911 165.654 143.645 161.259 150.223C156.863 156.801 150.616 161.928 143.307 164.955C135.998 167.983 127.956 168.775 120.196 167.231C112.437 165.688 105.31 161.878 99.7157 156.284C94.1216 150.69 90.312 143.563 88.7685 135.804C87.2251 128.044 88.0173 120.002 91.0448 112.693C94.0723 105.384 99.1992 99.1365 105.777 94.7412C112.355 90.3459 120.089 88 128 88V72Z" fill="#516FF1"/>
<path d="M196.688 96L212.688 80H184C181.878 80 179.843 79.1571 178.343 77.6568C176.843 76.1565 176 74.1217 176 72V43.312L160 59.312V96H196.688Z" fill="#516FF1" fill-opacity="0.5"/>
</svg>
