<svg width="256" height="256" viewBox="0 0 256 256" fill="none" xmlns="http://www.w3.org/2000/svg">
<path d="M86.9999 39.3478C90.5285 34.6431 95.3142 32 100.304 32H194.381C199.371 32 204.157 34.6431 207.685 39.3478C211.214 44.0525 213.196 50.4335 213.196 57.0871L213.196 182.523C213.196 189.176 211.214 195.557 207.685 200.262C204.157 204.967 190.49 212.5 185.5 212.5L85 54C85 54 83.4714 44.0525 86.9999 39.3478Z" fill="#516FF1" fill-opacity="0.5"/>
<path d="M213.196 57.0871H220.696H213.196ZM185.5 212.5L179.166 216.516C180.541 218.686 182.931 220 185.5 220L185.5 212.5ZM85 54L77.587 55.1392C77.7443 56.1624 78.1116 57.1419 78.666 58.0162L85 54ZM92.9999 43.8478C95.3979 40.6504 98.1138 39.5 100.304 39.5L100.304 24.5C92.5146 24.5 85.659 28.6357 80.9999 34.8478L92.9999 43.8478ZM100.304 39.5H194.381V24.5H100.304L100.304 39.5ZM194.381 39.5C196.571 39.5 199.287 40.6505 201.685 43.8478L213.685 34.8478C209.026 28.6356 202.171 24.5 194.381 24.5V39.5ZM201.685 43.8478C204.114 47.0864 205.696 51.8331 205.696 57.0871H220.696C220.696 49.034 218.314 41.0186 213.685 34.8478L201.685 43.8478ZM205.696 57.0871L205.696 182.523H220.696L220.696 57.0871H205.696ZM205.696 182.523C205.696 187.776 204.114 192.523 201.685 195.762L213.685 204.762C218.314 198.591 220.696 190.576 220.696 182.523H205.696ZM201.685 195.762C201.464 196.056 200.649 196.893 198.982 198.122C197.433 199.264 195.523 200.473 193.519 201.578C191.511 202.685 189.542 203.615 187.895 204.245C186.013 204.965 185.301 205 185.5 205L185.5 220C188.195 220 191.061 219.094 193.255 218.254C195.685 217.325 198.29 216.077 200.763 214.713C203.24 213.346 205.72 211.79 207.883 210.196C209.926 208.689 212.142 206.82 213.685 204.762L201.685 195.762ZM80.9999 34.8478C77.7032 39.2434 77.2404 45.0452 77.1781 48.2945C77.1423 50.1659 77.2402 51.8324 77.3449 53.027C77.3978 53.63 77.4536 54.1272 77.4983 54.4873C77.5207 54.6677 77.5405 54.8147 77.5558 54.9244C77.5634 54.9793 77.57 55.0249 77.5753 55.0609C77.5779 55.0788 77.5802 55.0944 77.5822 55.1074C77.5832 55.114 77.5841 55.1199 77.5849 55.1252C77.5853 55.1278 77.5857 55.1303 77.586 55.1326C77.5862 55.1338 77.5864 55.1354 77.5865 55.136C77.5868 55.1376 77.587 55.1392 85 54C92.413 52.8608 92.4132 52.8623 92.4134 52.8638C92.4135 52.8642 92.4137 52.8656 92.4138 52.8665C92.4141 52.8682 92.4143 52.8698 92.4146 52.8712C92.415 52.8741 92.4154 52.8764 92.4156 52.8781C92.4161 52.8816 92.4163 52.8828 92.4162 52.8818C92.4159 52.8798 92.4143 52.869 92.4116 52.8499C92.4063 52.8115 92.3966 52.7402 92.3841 52.6394C92.359 52.4372 92.323 52.1205 92.2876 51.7174C92.216 50.8998 92.1523 49.7854 92.1754 48.5818C92.1989 47.3555 92.31 46.1988 92.5216 45.243C92.6249 44.7761 92.7381 44.4229 92.8411 44.1714C92.9447 43.9184 93.0125 43.8311 92.9999 43.8478L80.9999 34.8478ZM78.666 58.0162L179.166 216.516L191.834 208.484L91.334 49.9838L78.666 58.0162Z" fill="#516FF1"/>
<path d="M71.8154 232.585H165.892C176.283 232.585 184.707 221.353 184.707 207.498L184.707 82.0625C184.707 68.2073 176.283 56.9754 165.892 56.9754H71.8154C61.4239 56.9754 53 68.2073 53 82.0625L53 207.498C53 221.353 61.4239 232.585 71.8154 232.585Z" fill="white" stroke="#516FF1" stroke-width="15" stroke-linecap="round" stroke-linejoin="round"/>
<path d="M140 181.5H159.512M140 106H159.512" stroke="#516FF1" stroke-width="15" stroke-linecap="round" stroke-linejoin="round"/>
<path d="M76.9999 101L88.9999 113L113 88.9999" stroke="#516FF1" stroke-width="15" stroke-linecap="round" stroke-linejoin="round"/>
<path d="M107 170L82.9999 194M82.9999 170L107 194L82.9999 170Z" stroke="#516FF1" stroke-width="15" stroke-linecap="round" stroke-linejoin="round"/>
</svg>
